<svg width="1471" height="1270" viewBox="0 0 1471 1270" fill="none" xmlns="http://www.w3.org/2000/svg">
<path d="M-82.8859 1014.73L356.77 573.011C356.986 572.761 357.236 572.528 357.469 572.311C359.217 570.688 361.402 569.611 363.753 569.214C366.105 568.816 368.522 569.116 370.706 570.075C372.89 571.034 374.746 572.611 376.046 574.612C377.346 576.613 378.033 578.95 378.022 581.337C378.022 581.636 378.022 581.92 378.022 582.219V626.846C378.022 627.312 378.022 627.778 378.022 628.245V917.868C377.992 949.118 365.574 979.079 343.495 1001.18C321.416 1023.28 291.476 1035.72 260.245 1035.76H-73.5329H-74.415C-76.7977 1035.76 -79.1286 1035.07 -81.1216 1033.76C-83.1147 1032.45 -84.683 1030.59 -85.634 1028.41C-86.5849 1026.22 -86.8771 1023.81 -86.4746 1021.46C-86.0722 1019.11 -84.9926 1016.93 -83.3685 1015.18L-82.8859 1014.7V1014.73Z" stroke="#BC9633" stroke-width="1.29328"/>
<path d="M873.731 1014.73L434.075 573.011C433.858 572.761 433.609 572.528 433.376 572.311C431.627 570.688 429.443 569.611 427.091 569.214C424.739 568.816 422.323 569.116 420.139 570.075C417.955 571.034 416.098 572.611 414.799 574.612C413.499 576.613 412.812 578.95 412.822 581.337C412.822 581.636 412.822 581.92 412.822 582.219V626.846C412.822 627.312 412.822 627.778 412.822 628.245V917.868C412.853 949.118 425.27 979.079 447.35 1001.18C469.429 1023.28 499.368 1035.72 530.6 1035.76H864.378H865.26C867.642 1035.76 869.973 1035.07 871.966 1033.76C873.959 1032.45 875.528 1030.59 876.479 1028.41C877.43 1026.22 877.722 1023.81 877.319 1021.46C876.917 1019.11 875.837 1016.93 874.213 1015.18L873.731 1014.7V1014.73Z" stroke="#BC9633" stroke-width="1.29328"/>
<path d="M-82.8859 1091.59L356.77 1533.32C356.986 1533.57 357.236 1533.8 357.469 1534.01C359.217 1535.64 361.402 1536.71 363.753 1537.11C366.105 1537.51 368.522 1537.21 370.706 1536.25C372.89 1535.29 374.746 1533.72 376.046 1531.71C377.346 1529.71 378.033 1527.38 378.022 1524.99C378.022 1524.69 378.022 1524.41 378.022 1524.11V1479.48C378.022 1479.01 378.022 1478.55 378.022 1478.08V1188.46C377.992 1157.21 365.574 1127.25 343.495 1105.15C321.416 1083.04 291.476 1070.61 260.245 1070.56H-73.5329H-74.415C-76.7977 1070.56 -79.1286 1071.26 -81.1216 1072.56C-83.1147 1073.87 -84.683 1075.73 -85.634 1077.92C-86.5849 1080.1 -86.8771 1082.52 -86.4746 1084.87C-86.0722 1087.22 -84.9926 1089.4 -83.3685 1091.14L-82.8859 1091.63V1091.59Z" stroke="#BC9633" stroke-width="1.29328"/>
<path d="M873.731 1091.59L434.075 1533.32C433.858 1533.57 433.609 1533.8 433.376 1534.01C431.627 1535.64 429.443 1536.71 427.091 1537.11C424.739 1537.51 422.323 1537.21 420.139 1536.25C417.955 1535.29 416.098 1533.72 414.799 1531.71C413.499 1529.71 412.812 1527.38 412.822 1524.99C412.822 1524.69 412.822 1524.41 412.822 1524.11V1479.48C412.822 1479.01 412.822 1478.55 412.822 1478.08V1188.46C412.853 1157.21 425.27 1127.25 447.35 1105.15C469.429 1083.04 499.368 1070.61 530.6 1070.56H864.378H865.26C867.642 1070.56 869.973 1071.26 871.966 1072.56C873.959 1073.87 875.528 1075.73 876.479 1077.92C877.43 1080.1 877.722 1082.52 877.319 1084.87C876.917 1087.22 875.837 1089.4 874.213 1091.14L873.731 1091.63V1091.59Z" stroke="#BC9633" stroke-width="1.29328"/>
<path d="M509.436 459.915L949.092 18.1944C949.309 17.9446 949.558 17.7115 949.791 17.4951C951.54 15.8716 953.724 14.7948 956.076 14.3974C958.428 14 960.844 14.2993 963.028 15.2584C965.212 16.2174 967.069 17.7944 968.368 19.7953C969.668 21.7962 970.355 24.1338 970.345 26.5202C970.345 26.82 970.345 27.1031 970.345 27.4029V72.0296C970.345 72.4958 970.345 72.962 970.345 73.4283V363.052C970.314 394.301 957.897 424.263 935.817 446.364C913.738 468.466 883.799 480.902 852.567 480.946H518.789H517.907C515.525 480.947 513.194 480.251 511.201 478.945C509.208 477.639 507.639 475.778 506.688 473.592C505.737 471.406 505.445 468.99 505.848 466.64C506.25 464.29 507.33 462.109 508.954 460.365L509.436 459.882V459.915Z" stroke="#BC9633" stroke-width="1.29328"/>
<path d="M1466.05 459.915L1026.4 18.1944C1026.18 17.9446 1025.93 17.7115 1025.7 17.4951C1023.95 15.8716 1021.76 14.7948 1019.41 14.3974C1017.06 14 1014.64 14.2993 1012.46 15.2584C1010.28 16.2174 1008.42 17.7944 1007.12 19.7953C1005.82 21.7962 1005.13 24.1338 1005.14 26.5202C1005.14 26.82 1005.14 27.1031 1005.14 27.4029V72.0296C1005.14 72.4958 1005.14 72.962 1005.14 73.4283V363.052C1005.17 394.301 1017.59 424.263 1039.67 446.364C1061.75 468.466 1091.69 480.902 1122.92 480.946H1456.7H1457.58C1459.96 480.947 1462.29 480.251 1464.29 478.945C1466.28 477.639 1467.85 475.778 1468.8 473.592C1469.75 471.406 1470.04 468.99 1469.64 466.64C1469.24 464.29 1468.16 462.109 1466.53 460.365L1466.05 459.882V459.915Z" stroke="#BC9633" stroke-width="1.29328"/>
<path d="M509.436 536.778L949.092 978.499C949.309 978.749 949.558 978.982 949.791 979.198C951.54 980.822 953.724 981.899 956.076 982.296C958.428 982.693 960.844 982.394 963.028 981.435C965.212 980.476 967.069 978.899 968.368 976.898C969.668 974.897 970.355 972.56 970.345 970.173C970.345 969.873 970.345 969.59 970.345 969.291V924.664C970.345 924.198 970.345 923.731 970.345 923.265V633.641C970.314 602.392 957.897 572.431 935.817 550.329C913.738 528.228 883.799 515.791 852.567 515.747H518.789H517.907C515.525 515.746 513.194 516.442 511.201 517.748C509.208 519.055 507.639 520.915 506.688 523.101C505.737 525.287 505.445 527.704 505.848 530.053C506.25 532.403 507.33 534.584 508.954 536.329L509.436 536.811V536.778Z" stroke="#BC9633" stroke-width="1.29328"/>
<path d="M1466.05 536.778L1026.4 978.499C1026.18 978.749 1025.93 978.982 1025.7 979.198C1023.95 980.822 1021.76 981.899 1019.41 982.296C1017.06 982.693 1014.64 982.394 1012.46 981.435C1010.28 980.476 1008.42 978.899 1007.12 976.898C1005.82 974.897 1005.13 972.56 1005.14 970.173C1005.14 969.873 1005.14 969.59 1005.14 969.291V924.664C1005.14 924.198 1005.14 923.731 1005.14 923.265V633.641C1005.17 602.392 1017.59 572.431 1039.67 550.329C1061.75 528.228 1091.69 515.791 1122.92 515.747H1456.7H1457.58C1459.96 515.746 1462.29 516.442 1464.29 517.748C1466.28 519.055 1467.85 520.915 1468.8 523.101C1469.75 525.287 1470.04 527.704 1469.64 530.053C1469.24 532.403 1468.16 534.584 1466.53 536.329L1466.05 536.811V536.778Z" stroke="#BC9633" stroke-width="1.29328"/>
<path d="M-82.8859 -23.2121L356.77 418.509C356.986 418.759 357.236 418.992 357.469 419.208C359.217 420.832 361.402 421.908 363.753 422.306C366.105 422.703 368.522 422.404 370.706 421.445C372.89 420.486 374.746 418.909 376.046 416.908C377.346 414.907 378.033 412.569 378.022 410.183C378.022 409.883 378.022 409.6 378.022 409.3V364.674C378.022 364.207 378.022 363.741 378.022 363.275V73.6512C377.992 42.4018 365.574 12.4403 343.495 -9.66104C321.416 -31.7624 291.476 -44.1992 260.245 -44.2432H-73.5329H-74.415C-76.7977 -44.2439 -79.1286 -43.5484 -81.1216 -42.2419C-83.1147 -40.9354 -84.683 -39.0748 -85.634 -36.8888C-86.5849 -34.7029 -86.8771 -32.2867 -86.4746 -29.9369C-86.0722 -27.5871 -84.9926 -25.4061 -83.3685 -23.6617L-82.8859 -23.1788V-23.2121Z" stroke="#BC9633" stroke-width="1.29328"/>
<path d="M873.731 -23.2121L434.075 418.509C433.858 418.759 433.609 418.992 433.376 419.208C431.627 420.832 429.443 421.908 427.091 422.306C424.739 422.703 422.323 422.404 420.139 421.445C417.955 420.486 416.098 418.909 414.799 416.908C413.499 414.907 412.812 412.569 412.822 410.183C412.822 409.883 412.822 409.6 412.822 409.3V364.674C412.822 364.207 412.822 363.741 412.822 363.275V73.6512C412.853 42.4018 425.27 12.4403 447.35 -9.66104C469.429 -31.7624 499.368 -44.1992 530.6 -44.2432H864.378H865.26C867.642 -44.2439 869.973 -43.5484 871.966 -42.2419C873.959 -40.9354 875.528 -39.0748 876.479 -36.8888C877.43 -34.7029 877.722 -32.2867 877.319 -29.9369C876.917 -27.5871 875.837 -25.4061 874.213 -23.6617L873.731 -23.1788V-23.2121Z" stroke="#BC9633" stroke-width="1.29328"/>
</svg>
