<svg width="1559" height="2085" viewBox="0 0 1559 2085" fill="none" xmlns="http://www.w3.org/2000/svg">
<path d="M4.81141 1561.37L444.467 1119.65C444.684 1119.4 444.933 1119.16 445.166 1118.95C446.915 1117.32 449.099 1116.25 451.451 1115.85C453.803 1115.45 456.219 1115.75 458.403 1116.71C460.587 1117.67 462.444 1119.25 463.743 1121.25C465.043 1123.25 465.73 1125.58 465.72 1127.97C465.72 1128.27 465.72 1128.55 465.72 1128.85V1173.48C465.72 1173.95 465.72 1174.41 465.72 1174.88V1464.5C465.689 1495.75 453.272 1525.71 431.192 1547.82C409.113 1569.92 379.174 1582.35 347.942 1582.4H14.1644H13.2822C10.8995 1582.4 8.56869 1581.7 6.57564 1580.4C4.58259 1579.09 3.01425 1577.23 2.0633 1575.04C1.11235 1572.86 0.82018 1570.44 1.22264 1568.09C1.62511 1565.74 2.70468 1563.56 4.3288 1561.82L4.81141 1561.33V1561.37Z" stroke="#BC9633" stroke-width="1.29328"/>
<path d="M961.429 1561.37L521.773 1119.65C521.557 1119.4 521.307 1119.16 521.074 1118.95C519.326 1117.32 517.141 1116.25 514.79 1115.85C512.438 1115.45 510.021 1115.75 507.837 1116.71C505.653 1117.67 503.797 1119.25 502.497 1121.25C501.197 1123.25 500.51 1125.58 500.521 1127.97C500.521 1128.27 500.521 1128.55 500.521 1128.85V1173.48C500.521 1173.95 500.521 1174.41 500.521 1174.88V1464.5C500.551 1495.75 512.968 1525.71 535.048 1547.82C557.127 1569.92 587.067 1582.35 618.298 1582.4H952.076H952.958C955.341 1582.4 957.672 1581.7 959.665 1580.4C961.658 1579.09 963.226 1577.23 964.177 1575.04C965.128 1572.86 965.42 1570.44 965.018 1568.09C964.615 1565.74 963.536 1563.56 961.911 1561.82L961.429 1561.33V1561.37Z" stroke="#BC9633" stroke-width="1.29328"/>
<path d="M4.81141 1638.23L444.467 2079.95C444.684 2080.2 444.933 2080.43 445.166 2080.65C446.915 2082.27 449.099 2083.35 451.451 2083.75C453.803 2084.14 456.219 2083.85 458.403 2082.89C460.587 2081.93 462.444 2080.35 463.743 2078.35C465.043 2076.35 465.73 2074.01 465.72 2071.62C465.72 2071.32 465.72 2071.04 465.72 2070.74V2026.11C465.72 2025.65 465.72 2025.18 465.72 2024.72V1735.09C465.689 1703.84 453.272 1673.88 431.192 1651.78C409.113 1629.68 379.174 1617.24 347.942 1617.2H14.1644H13.2822C10.8995 1617.2 8.56869 1617.89 6.57564 1619.2C4.58259 1620.51 3.01425 1622.37 2.0633 1624.55C1.11235 1626.74 0.82018 1629.15 1.22264 1631.5C1.62511 1633.85 2.70468 1636.04 4.3288 1637.78L4.81141 1638.26V1638.23Z" stroke="#BC9633" stroke-width="1.29328"/>
<path d="M961.429 1638.23L521.773 2079.95C521.557 2080.2 521.307 2080.43 521.074 2080.65C519.326 2082.27 517.141 2083.35 514.79 2083.75C512.438 2084.14 510.021 2083.85 507.837 2082.89C505.653 2081.93 503.797 2080.35 502.497 2078.35C501.197 2076.35 500.51 2074.01 500.521 2071.62C500.521 2071.32 500.521 2071.04 500.521 2070.74V2026.11C500.521 2025.65 500.521 2025.18 500.521 2024.72V1735.09C500.551 1703.84 512.968 1673.88 535.048 1651.78C557.127 1629.68 587.067 1617.24 618.298 1617.2H952.076H952.958C955.341 1617.2 957.672 1617.89 959.665 1619.2C961.658 1620.51 963.226 1622.37 964.177 1624.55C965.128 1626.74 965.42 1629.15 965.018 1631.5C964.615 1633.85 963.536 1636.04 961.911 1637.78L961.429 1638.26V1638.23Z" stroke="#BC9633" stroke-width="1.29328"/>
<path d="M597.134 1006.55L1036.79 564.829C1037.01 564.579 1037.26 564.346 1037.49 564.13C1039.24 562.506 1041.42 561.43 1043.77 561.032C1046.12 560.635 1048.54 560.934 1050.73 561.893C1052.91 562.852 1054.77 564.429 1056.07 566.43C1057.37 568.431 1058.05 570.769 1058.04 573.155C1058.04 573.455 1058.04 573.738 1058.04 574.038V618.664C1058.04 619.131 1058.04 619.597 1058.04 620.063V909.687C1058.01 940.936 1045.59 970.898 1023.51 992.999C1001.44 1015.1 971.496 1027.54 940.264 1027.58H606.487H605.605C603.222 1027.58 600.891 1026.89 598.898 1025.58C596.905 1024.27 595.337 1022.41 594.386 1020.23C593.435 1018.04 593.142 1015.62 593.545 1013.27C593.947 1010.92 595.027 1008.74 596.651 1007L597.134 1006.52V1006.55Z" stroke="#BC9633" stroke-width="1.29328"/>
<path d="M1553.75 1006.55L1114.09 564.829C1113.88 564.579 1113.63 564.346 1113.39 564.13C1111.65 562.506 1109.46 561.43 1107.11 561.032C1104.76 560.635 1102.34 560.934 1100.16 561.893C1097.97 562.852 1096.12 564.429 1094.82 566.43C1093.52 568.431 1092.83 570.769 1092.84 573.155C1092.84 573.455 1092.84 573.738 1092.84 574.038V618.664C1092.84 619.131 1092.84 619.597 1092.84 620.063V909.687C1092.87 940.936 1105.29 970.898 1127.37 992.999C1149.45 1015.1 1179.39 1027.54 1210.62 1027.58H1544.4H1545.28C1547.66 1027.58 1549.99 1026.89 1551.98 1025.58C1553.98 1024.27 1555.55 1022.41 1556.5 1020.23C1557.45 1018.04 1557.74 1015.62 1557.34 1013.27C1556.94 1010.92 1555.86 1008.74 1554.23 1007L1553.75 1006.52V1006.55Z" stroke="#BC9633" stroke-width="1.29328"/>
<path d="M597.134 1083.41L1036.79 1525.13C1037.01 1525.38 1037.26 1525.62 1037.49 1525.83C1039.24 1527.46 1041.42 1528.53 1043.77 1528.93C1046.12 1529.33 1048.54 1529.03 1050.73 1528.07C1052.91 1527.11 1054.77 1525.53 1056.07 1523.53C1057.37 1521.53 1058.05 1519.19 1058.04 1516.81C1058.04 1516.51 1058.04 1516.23 1058.04 1515.93V1471.3C1058.04 1470.83 1058.04 1470.37 1058.04 1469.9V1180.28C1058.01 1149.03 1045.59 1119.07 1023.51 1096.96C1001.44 1074.86 971.496 1062.43 940.264 1062.38H606.487H605.605C603.222 1062.38 600.891 1063.08 598.898 1064.38C596.905 1065.69 595.337 1067.55 594.386 1069.74C593.435 1071.92 593.142 1074.34 593.545 1076.69C593.947 1079.04 595.027 1081.22 596.651 1082.96L597.134 1083.45V1083.41Z" stroke="#BC9633" stroke-width="1.29328"/>
<path d="M1553.75 1083.41L1114.09 1525.13C1113.88 1525.38 1113.63 1525.62 1113.39 1525.83C1111.65 1527.46 1109.46 1528.53 1107.11 1528.93C1104.76 1529.33 1102.34 1529.03 1100.16 1528.07C1097.97 1527.11 1096.12 1525.53 1094.82 1523.53C1093.52 1521.53 1092.83 1519.19 1092.84 1516.81C1092.84 1516.51 1092.84 1516.23 1092.84 1515.93V1471.3C1092.84 1470.83 1092.84 1470.37 1092.84 1469.9V1180.28C1092.87 1149.03 1105.29 1119.07 1127.37 1096.96C1149.45 1074.86 1179.39 1062.43 1210.62 1062.38H1544.4H1545.28C1547.66 1062.38 1549.99 1063.08 1551.98 1064.38C1553.98 1065.69 1555.55 1067.55 1556.5 1069.74C1557.45 1071.92 1557.74 1074.34 1557.34 1076.69C1556.94 1079.04 1555.86 1081.22 1554.23 1082.96L1553.75 1083.45V1083.41Z" stroke="#BC9633" stroke-width="1.29328"/>
<path d="M4.81141 446.56L444.467 4.83893C444.684 4.58915 444.933 4.35606 445.166 4.13959C446.915 2.51611 449.099 1.43936 451.451 1.04197C453.803 0.644578 456.219 0.943855 458.403 1.90291C460.587 2.86196 462.444 4.43893 463.743 6.43985C465.043 8.44077 465.73 10.7783 465.72 13.1648C465.72 13.4645 465.72 13.7477 465.72 14.0474V58.6741C465.72 59.1404 465.72 59.6066 465.72 60.0728V349.696C465.689 380.946 453.272 410.907 431.192 433.009C409.113 455.11 379.174 467.547 347.942 467.591H14.1644H13.2822C10.8995 467.592 8.56869 466.896 6.57564 465.59C4.58259 464.283 3.01425 462.422 2.0633 460.236C1.11235 458.051 0.82018 455.634 1.22264 453.285C1.62511 450.935 2.70468 448.754 4.3288 447.009L4.81141 446.526V446.56Z" stroke="#BC9633" stroke-width="1.29328"/>
<path d="M961.429 446.56L521.773 4.83893C521.557 4.58915 521.307 4.35606 521.074 4.13959C519.326 2.51611 517.141 1.43936 514.79 1.04197C512.438 0.644578 510.021 0.943855 507.837 1.90291C505.653 2.86196 503.797 4.43893 502.497 6.43985C501.197 8.44077 500.51 10.7783 500.521 13.1648C500.521 13.4645 500.521 13.7477 500.521 14.0474V58.6741C500.521 59.1404 500.521 59.6066 500.521 60.0728V349.696C500.551 380.946 512.968 410.907 535.048 433.009C557.127 455.11 587.067 467.547 618.298 467.591H952.076H952.958C955.341 467.592 957.672 466.896 959.665 465.59C961.658 464.283 963.226 462.422 964.177 460.236C965.128 458.051 965.42 455.634 965.018 453.285C964.615 450.935 963.536 448.754 961.911 447.009L961.429 446.526V446.56Z" stroke="#BC9633" stroke-width="1.29328"/>
<path d="M4.81141 523.423L444.467 965.143C444.684 965.393 444.933 965.626 445.166 965.843C446.915 967.466 449.099 968.543 451.451 968.94C453.803 969.338 456.219 969.039 458.403 968.08C460.587 967.12 462.444 965.543 463.743 963.543C465.043 961.542 465.73 959.204 465.72 956.818C465.72 956.518 465.72 956.235 465.72 955.935V911.308C465.72 910.842 465.72 910.376 465.72 909.91V620.286C465.689 589.037 453.272 559.075 431.192 536.974C409.113 514.872 379.174 502.436 347.942 502.392H14.1644H13.2822C10.8995 502.391 8.56869 503.086 6.57564 504.393C4.58259 505.699 3.01425 507.56 2.0633 509.746C1.11235 511.932 0.82018 514.348 1.22264 516.698C1.62511 519.048 2.70468 521.229 4.3288 522.973L4.81141 523.456V523.423Z" stroke="#BC9633" stroke-width="1.29328"/>
<path d="M961.429 523.423L521.773 965.143C521.557 965.393 521.307 965.626 521.074 965.843C519.326 967.466 517.141 968.543 514.79 968.94C512.438 969.338 510.021 969.039 507.837 968.08C505.653 967.12 503.797 965.543 502.497 963.543C501.197 961.542 500.51 959.204 500.521 956.818C500.521 956.518 500.521 956.235 500.521 955.935V911.308C500.521 910.842 500.521 910.376 500.521 909.91V620.286C500.551 589.037 512.968 559.075 535.048 536.974C557.127 514.872 587.067 502.436 618.298 502.392H952.076H952.958C955.341 502.391 957.672 503.086 959.665 504.393C961.658 505.699 963.226 507.56 964.177 509.746C965.128 511.932 965.42 514.348 965.018 516.698C964.615 519.048 963.536 521.229 961.911 522.973L961.429 523.456V523.423Z" stroke="#BC9633" stroke-width="1.29328"/>
</svg>
