<svg width="385" height="126" viewBox="0 0 385 126" fill="none" xmlns="http://www.w3.org/2000/svg">
<path d="M0.340406 40.3012L40.0961 0.358789C40.1156 0.336204 40.1382 0.315127 40.1593 0.295552C40.3173 0.148749 40.5149 0.0513847 40.7275 0.0154511C40.9402 -0.0204825 41.1587 0.00657938 41.3562 0.0933014C41.5537 0.180023 41.7215 0.32262 41.8391 0.503552C41.9566 0.684484 42.0187 0.895854 42.0178 1.11165C42.0178 1.13875 42.0178 1.16436 42.0178 1.19146V5.22681C42.0178 5.26897 42.0178 5.31112 42.0178 5.35328V31.5424C42.015 34.3681 40.8922 37.0773 38.8957 39.0758C36.8992 41.0743 34.1919 42.1989 31.3678 42.2029H1.18615H1.10638C0.890922 42.203 0.680156 42.1401 0.499936 42.0219C0.319715 41.9038 0.177899 41.7355 0.0919097 41.5379C0.00592081 41.3402 -0.0204988 41.1217 0.0158938 40.9092C0.0522864 40.6968 0.149906 40.4996 0.296766 40.3418L0.340406 40.2982V40.3012Z" fill="#BC9633"/>
<path d="M86.8432 40.3012L47.0875 0.358789C47.068 0.336204 47.0454 0.315127 47.0243 0.295552C46.8662 0.148749 46.6687 0.0513847 46.4561 0.0154511C46.2434 -0.0204825 46.0249 0.00657938 45.8274 0.0933014C45.6299 0.180023 45.462 0.32262 45.3445 0.503552C45.227 0.684484 45.1648 0.895854 45.1658 1.11165C45.1658 1.13875 45.1658 1.16436 45.1658 1.19146V5.22681C45.1658 5.26897 45.1658 5.31112 45.1658 5.35328V31.5424C45.1686 34.3681 46.2914 37.0773 48.2879 39.0758C50.2844 41.0743 52.9917 42.1989 55.8158 42.2029H85.9974H86.0772C86.2927 42.203 86.5034 42.1401 86.6837 42.0219C86.8639 41.9038 87.0057 41.7355 87.0917 41.5379C87.1777 41.3402 87.2041 41.1217 87.1677 40.9092C87.1313 40.6968 87.0337 40.4996 86.8868 40.3418L86.8432 40.2982V40.3012Z" fill="#BC9633"/>
<path d="M0.340406 47.2516L40.0961 87.1939C40.1156 87.2165 40.1382 87.2376 40.1593 87.2572C40.3173 87.404 40.5149 87.5013 40.7275 87.5373C40.9402 87.5732 41.1587 87.5462 41.3562 87.4594C41.5537 87.3727 41.7215 87.2301 41.8391 87.0492C41.9566 86.8683 42.0187 86.6569 42.0178 86.4411C42.0178 86.414 42.0178 86.3884 42.0178 86.3613V82.3259C42.0178 82.2838 42.0178 82.2416 42.0178 82.1995V56.0104C42.015 53.1847 40.8922 50.4754 38.8957 48.4769C36.8992 46.4784 34.1919 45.3538 31.3678 45.3498H1.18615H1.10638C0.890922 45.3498 0.680156 45.4127 0.499936 45.5308C0.319715 45.649 0.177899 45.8172 0.0919097 46.0149C0.00592081 46.2125 -0.0204988 46.431 0.0158938 46.6435C0.0522864 46.856 0.149906 47.0532 0.296766 47.2109L0.340406 47.2546V47.2516Z" fill="#BC9633"/>
<path d="M86.8432 47.2516L47.0875 87.1939C47.068 87.2165 47.0454 87.2376 47.0243 87.2572C46.8662 87.404 46.6687 87.5013 46.4561 87.5373C46.2434 87.5732 46.0249 87.5462 45.8274 87.4594C45.6299 87.3727 45.462 87.2301 45.3445 87.0492C45.227 86.8683 45.1648 86.6569 45.1658 86.4411C45.1658 86.414 45.1658 86.3884 45.1658 86.3613V82.3259C45.1658 82.2838 45.1658 82.2416 45.1658 82.1995V56.0104C45.1686 53.1847 46.2914 50.4754 48.2879 48.4769C50.2844 46.4784 52.9917 45.3538 55.8158 45.3498H85.9974H86.0772C86.2927 45.3498 86.5034 45.4127 86.6837 45.5308C86.8639 45.649 87.0057 45.8172 87.0917 46.0149C87.1777 46.2125 87.2041 46.431 87.1677 46.6435C87.1313 46.856 87.0337 47.0532 86.8868 47.2109L86.8432 47.2546V47.2516Z" fill="#BC9633"/>
<path d="M70.3008 125.503V71.2441H96.0622C104.098 71.2441 108.116 75.2546 108.116 83.2754V91.9253C108.116 98.7404 105.201 102.62 99.371 103.563L109.691 123.93L108.825 125.503H103.231L92.2807 103.957H76.9184V125.503H70.3008ZM76.9184 97.9803H96.141C99.7124 97.9803 101.498 96.1978 101.498 92.633V82.5677C101.498 79.0029 99.7124 77.2205 96.141 77.2205H76.9184V97.9803Z" fill="white"/>
<path d="M120.693 125.503V71.2441H129.438L147.636 109.776L165.756 71.2441H174.501V125.503H167.883V81.1522L150.709 117.639H144.485L127.311 81.1522V125.503H120.693Z" fill="white"/>
<path d="M188.073 125.503V117.01H195.715V125.503H188.073Z" fill="white"/>
<path d="M197.66 77.2205V71.2441H240.517V77.2205H222.397V125.503H215.779V77.2205H197.66Z" fill="white"/>
<path d="M249.482 125.503V71.2441H284.933V77.2205H256.099V94.0485H282.57V100.025H256.099V119.526H284.933V125.503H249.482Z" fill="white"/>
<path d="M295.162 113.471V83.2754C295.162 75.2546 299.18 71.2441 307.216 71.2441H329.432L332.977 73.9964V77.2205H307.137C303.566 77.2205 301.78 79.0029 301.78 82.5677V114.179C301.78 117.744 303.566 119.526 307.137 119.526H332.977V122.75L329.432 125.503H307.216C299.18 125.503 295.162 121.492 295.162 113.471Z" fill="white"/>
<path d="M344.034 125.503V71.2441H350.652V94.0485H378.383V71.2441H385.001V125.503H378.383V100.025H350.652V125.503H344.034Z" fill="white"/>
</svg>
